<svg xmlns="http://www.w3.org/2000/svg" viewBox="0 0 36 45" x="0px" y="0px"><title>Монтажная область 87</title><g data-name="Слой 3"><path d="M30,0H6A6,6,0,0,0,0,6V30a6,6,0,0,0,6,6H30a6,6,0,0,0,6-6V6A6,6,0,0,0,30,0ZM26.89,15.55l-.05.07a4.78,4.78,0,0,1-.73,1L18,27.5,9.45,16.08l-.17-.24,0,0h0a4.7,4.7,0,0,1-.69-3.36,4.75,4.75,0,0,1,9.3-.3.14.14,0,0,0,.26,0,4.75,4.75,0,0,1,9.18-.2,4.62,4.62,0,0,1-.43,3.61Z"/></g><text x="0" y="51" fill="#000000" font-size="5px" font-weight="bold" font-family="'Helvetica Neue', Helvetica, Arial-Unicode, Arial, Sans-serif">Created by Vadim Solomakhin</text><text x="0" y="56" fill="#000000" font-size="5px" font-weight="bold" font-family="'Helvetica Neue', Helvetica, Arial-Unicode, Arial, Sans-serif">from the Noun Project</text></svg>