<svg xmlns="http://www.w3.org/2000/svg" viewBox="0 0 36 45" x="0px" y="0px"><title>Монтажная область 74</title><g data-name="Слой 3"><path d="M30,0H6A6,6,0,0,0,0,6V30a6,6,0,0,0,6,6H30a6,6,0,0,0,6-6V6A6,6,0,0,0,30,0ZM22.75,25.92a4.74,4.74,0,0,1-3.17-1.24V27.5H16.42V24.68a4.76,4.76,0,1,1-1.7-8,4.75,4.75,0,1,1,6.56,0,4.74,4.74,0,1,1,1.47,9.25Z"/></g><text x="0" y="51" fill="#000000" font-size="5px" font-weight="bold" font-family="'Helvetica Neue', Helvetica, Arial-Unicode, Arial, Sans-serif">Created by Vadim Solomakhin</text><text x="0" y="56" fill="#000000" font-size="5px" font-weight="bold" font-family="'Helvetica Neue', Helvetica, Arial-Unicode, Arial, Sans-serif">from the Noun Project</text></svg>