<?xml version="1.0" encoding="utf-8"?>
<svg viewBox="0 0 36 36" x="0px" y="0px" xmlns="http://www.w3.org/2000/svg">
  <title>Монтажная область 75</title>
  <g data-name="Слой 3">
    <path d="M30,0H6A6,6,0,0,0,0,6V30a6,6,0,0,0,6,6H30a6,6,0,0,0,6-6V6A6,6,0,0,0,30,0ZM23,26.33a5.15,5.15,0,0,1-3.33-1.19V28H16.33V25.14A5.15,5.15,0,0,1,13,26.33a4.8,4.8,0,0,1-5-4.58,4.27,4.27,0,0,1,.65-2.22h0l0-.07a4.7,4.7,0,0,1,.78-.95L18,8l9,11c.06.08.13.15.18.23l0,0h0a4.25,4.25,0,0,1,.8,2.46A4.8,4.8,0,0,1,23,26.33Z"/>
  </g>
</svg>